<svg width="233" height="230" viewBox="0 0 233 230" fill="none" xmlns="http://www.w3.org/2000/svg">
<path d="M230.842 91.2413C229.204 82.735 226.612 74.4405 223.115 66.5151C212.607 43.1654 194.468 24.0851 171.679 12.41C148.891 0.734782 122.808 -2.84069 97.7181 2.27114C93.4616 3.12457 89.2595 4.23037 85.1342 5.58269C79.162 7.07086 73.3273 9.06499 67.6935 11.5435C53.3195 17.9249 40.4225 27.2135 29.8148 38.8243C19.207 50.435 11.1183 64.1165 6.05801 79.007C0.997721 93.8975 -0.924527 109.675 0.412322 125.345C1.74917 141.014 6.31616 156.238 13.8257 170.056C16.5053 174.974 19.5301 179.695 22.8772 184.185C26.2733 188.62 29.961 192.824 33.9157 196.769C49.6102 212.386 69.5081 223.101 91.185 227.609C112.862 232.117 135.382 230.223 156.001 222.158L163.287 219.067L169.91 215.755C174.364 213.253 178.642 210.45 182.714 207.366L188.675 202.73L191.324 200.301L193.753 198.315L198.168 194.341L199.714 193.016L201.038 191.471L205.012 187.055C209.985 181.421 214.351 175.28 218.038 168.731C223.832 158.627 228.004 147.676 230.401 136.278C233.544 121.445 233.694 106.133 230.842 91.2413ZM192.207 195.665L189.558 198.094L186.909 200.522L181.169 205.158C177.16 208.091 172.956 210.746 168.585 213.106L161.962 216.418L154.897 219.288L144.08 222.82H142.976C128.204 225.902 112.962 225.977 98.1597 223.041C89.7179 221.323 81.4973 218.657 73.6542 215.093C65.3806 211.345 57.596 206.6 50.4734 200.964C42.9298 194.92 36.1797 187.947 30.3834 180.211C27.38 176.206 24.651 172.002 22.2149 167.628C20.8903 165.42 19.7864 163.212 18.6826 160.784C17.5788 158.355 16.4749 156.148 15.8126 153.719C8.64301 135.038 6.62258 114.775 9.96247 95.0461C13.3024 75.3175 21.8799 56.8481 34.7988 41.5681L36.5649 39.802L37.6688 38.4774L38.9934 37.1527L41.6426 34.7243L46.9411 30.0881C59.4974 19.9132 74.1157 12.5898 89.7832 8.62528C105.451 4.66075 121.793 4.14989 137.677 7.12807C149.043 9.17939 160.003 13.0561 170.131 18.6081C176.682 22.204 182.825 26.4971 188.454 31.4127L192.87 35.3866L194.415 36.7112L195.74 38.2566L199.714 42.672C212.291 57.0636 220.89 74.491 224.661 93.2282C227.573 107.958 227.498 123.123 224.44 137.824C222.71 146.191 220.044 154.337 216.492 162.108C212.612 170.408 207.718 178.194 201.921 185.289L197.285 190.588L192.207 195.665ZM93.082 224.365C82.5157 222.181 72.326 218.462 62.8365 213.327C58.0698 210.712 53.4957 207.761 49.1488 204.496C44.872 201.236 40.8157 197.696 37.0065 193.899C22.0454 178.76 11.7901 159.612 7.48041 138.769C3.17073 117.926 4.99123 96.2802 12.7218 76.4497C13.6049 74.0212 14.7087 71.8136 15.5918 69.6059L16.9164 66.7359C13.4913 74.5161 10.9727 82.6645 9.41028 91.0205C5.17602 112.072 7.0136 133.893 14.7087 153.94C15.5918 156.368 16.6957 158.797 17.7995 161.004C18.9034 163.212 20.0072 165.641 21.3318 167.848C23.761 172.297 26.4901 176.575 29.5003 180.653C35.3411 188.488 42.1676 195.537 49.8111 201.626C57.0647 207.363 64.9988 212.183 73.4335 215.976C93.2778 224.909 115.286 227.9 136.794 224.586C122.353 227.409 107.494 227.334 93.082 224.365ZM229.738 136.278C227.417 147.666 223.32 158.617 217.596 168.731C213.98 175.27 209.689 181.412 204.791 187.055L200.818 191.471L199.493 193.016L197.947 194.341L193.753 198.094H194.194L199.272 192.795L203.908 187.276C209.654 179.948 214.473 171.94 218.258 163.433C227.919 141.508 230.392 117.087 225.323 93.6698C224.009 87.4874 222.162 81.4304 219.804 75.5666C217.875 70.6232 215.587 65.8271 212.96 61.2166C209.27 54.6703 204.905 48.5287 199.934 42.8927L195.961 38.4774L194.636 36.932L193.091 35.6073L188.675 31.6335C183.139 26.3829 177.072 21.7217 170.572 17.725C165.968 15.0214 161.172 12.6601 156.222 10.6604C150.365 8.22848 144.308 6.30798 138.119 4.92038C128.917 2.89436 119.5 2.00464 110.081 2.27114C127.106 0.776826 144.247 3.19322 160.196 9.33577L167.261 12.2058L174.104 15.7381C178.479 18.173 182.683 20.9021 186.688 23.9066L192.428 28.5427L195.078 30.9712L197.727 33.3997L202.804 38.4774L207.441 43.7758C213.156 50.8853 217.976 58.6707 221.791 66.9566C225.342 74.7278 228.008 82.874 229.738 91.2413C232.735 106.03 232.735 121.269 229.738 136.057V136.278Z" fill="white"/>
<path d="M140.719 115.324H93.0367C92.4236 115.324 91.8583 114.993 91.5551 114.459C91.252 113.927 91.2622 113.267 91.5756 112.742L106.66 87.6032V71.0481H103.254C102.314 71.0481 101.551 70.2818 101.551 69.3451C101.551 68.4085 102.314 67.6422 103.254 67.6422H108.363C109.303 67.6422 110.066 68.4085 110.066 69.3451V88.0774C110.066 88.3874 109.984 88.6905 109.824 88.9561L96.0475 111.919H137.711L123.935 88.9561C123.775 88.6905 123.693 88.3874 123.693 88.0774V69.3451C123.693 68.4085 124.459 67.6422 125.396 67.6422H130.505C131.445 67.6422 132.208 68.4085 132.208 69.3451C132.208 70.2818 131.445 71.0481 130.505 71.0481H127.099V87.6032L142.188 112.742C142.504 113.27 142.514 113.927 142.207 114.459C141.901 114.993 141.336 115.324 140.719 115.324Z" fill="white"/>
<path d="M128.689 108.513H105.066C104.453 108.513 103.884 108.181 103.585 107.648C103.281 107.115 103.292 106.456 103.605 105.93L113.468 89.4934V86.3745C113.468 85.4379 114.231 84.6716 115.171 84.6716H118.577C119.517 84.6716 120.28 85.4379 120.28 86.3745V89.4943L130.144 105.931C130.46 106.456 130.467 107.116 130.163 107.648C129.868 108.181 129.299 108.513 128.689 108.513Z" fill="#2EB88E"/>
<path d="M123.689 65.9392C120.872 65.9392 118.581 63.6471 118.581 60.8304C118.581 58.0138 120.872 55.7216 123.689 55.7216C126.507 55.7216 128.798 58.0138 128.798 60.8304C128.798 63.6471 126.507 65.9392 123.689 65.9392Z" fill="#2B9978"/>
<path d="M116.878 52.3158C114.061 52.3158 111.769 50.0236 111.769 47.2069C111.769 44.3903 114.061 42.0981 116.878 42.0981C119.695 42.0981 121.987 44.3903 121.987 47.2069C121.987 50.0236 119.695 52.3158 116.878 52.3158Z" fill="#1C624D"/>
<path d="M130.501 45.504C127.684 45.504 125.392 43.2119 125.392 40.3952C125.392 37.5786 127.684 35.2864 130.501 35.2864C133.319 35.2864 135.61 37.5786 135.61 40.3952C135.61 43.2119 133.319 45.504 130.501 45.504Z" fill="#2EB88E"/>
<path d="M58.0561 130.972C58.3999 130.972 58.7007 131.117 58.9586 131.406C59.2164 131.696 59.3454 132.034 59.3454 132.42V160.132C59.3454 160.518 59.2164 160.856 58.9586 161.145C58.7007 161.435 58.3999 161.579 58.0561 161.579H55.2565C54.8881 161.579 54.5811 161.435 54.3356 161.145C54.09 160.856 53.9672 160.518 53.9672 160.132V141.437L47.1524 151.28C46.8822 151.639 46.5384 151.818 46.121 151.818C45.9245 151.818 45.728 151.77 45.5316 151.673C45.3351 151.577 45.1878 151.432 45.0895 151.239L33.007 133.288C32.8597 133.095 32.7737 132.854 32.7492 132.565C32.7246 132.275 32.7737 132.013 32.8965 131.779C33.0193 131.544 33.1789 131.351 33.3754 131.2C33.5719 131.048 33.7929 130.972 34.0385 130.972H37.2801C37.6976 130.972 38.0414 131.165 38.3115 131.551L46.121 143.132L53.7462 131.551C54.0163 131.165 54.3724 130.972 54.8144 130.972H58.0561ZM36.8381 151.032C37.1819 151.032 37.4827 151.17 37.7406 151.446C37.9984 151.722 38.1274 152.066 38.1274 152.48V160.132C38.1274 160.518 37.9984 160.856 37.7406 161.145C37.4827 161.435 37.1819 161.579 36.8381 161.579H34.0385C33.6947 161.579 33.3938 161.435 33.136 161.145C32.8781 160.856 32.7492 160.518 32.7492 160.132V152.48C32.7492 152.066 32.8781 151.722 33.136 151.446C33.3938 151.17 33.6947 151.032 34.0385 151.032H36.8381ZM88.056 155.706C88.4244 155.706 88.7313 155.851 88.9769 156.14C89.2225 156.43 89.3453 156.781 89.3453 157.195V160.214C89.3453 160.6 89.2225 160.938 88.9769 161.228C88.7313 161.517 88.4244 161.662 88.056 161.662H69.8586C69.5148 161.662 69.214 161.517 68.9561 161.228C68.6982 160.938 68.5693 160.6 68.5693 160.214V157.195C68.5693 156.781 68.6982 156.43 68.9561 156.14C69.214 155.851 69.5148 155.706 69.8586 155.706H88.056ZM69.8586 149.295C69.5148 149.295 69.214 149.15 68.9561 148.861C68.6982 148.571 68.5693 148.234 68.5693 147.847V144.745C68.5693 144.359 68.6982 144.022 68.9561 143.732C69.214 143.443 69.5148 143.298 69.8586 143.298H86.3983C86.7667 143.298 87.0798 143.443 87.3377 143.732C87.5955 144.022 87.7245 144.359 87.7245 144.745V147.847C87.7245 148.234 87.5955 148.571 87.3377 148.861C87.0798 149.15 86.7667 149.295 86.3983 149.295H69.8586ZM88.056 130.972C88.4244 130.972 88.7313 131.117 88.9769 131.406C89.2225 131.696 89.3453 132.034 89.3453 132.42V135.439C89.3453 135.853 89.2225 136.204 88.9769 136.494C88.7313 136.783 88.4244 136.928 88.056 136.928H69.8586C69.5148 136.928 69.214 136.783 68.9561 136.494C68.6982 136.204 68.5693 135.853 68.5693 135.439V132.42C68.5693 132.034 68.6982 131.696 68.9561 131.406C69.214 131.117 69.5148 130.972 69.8586 130.972H88.056ZM113.525 132.048C115.023 132.682 116.374 133.702 117.577 135.108C120.156 138.031 121.445 141.761 121.445 146.296C121.445 150.832 120.156 154.576 117.577 157.526C116.374 158.932 115.023 159.953 113.525 160.587C111.978 161.304 110.394 161.662 108.773 161.662H98.3482C98.0044 161.662 97.7036 161.517 97.4457 161.228C97.1879 160.938 97.0589 160.6 97.0589 160.214V157.236C97.0589 156.823 97.1879 156.471 97.4457 156.182C97.7036 155.892 98.0044 155.747 98.3482 155.747H108.663C110.848 155.747 112.622 154.851 113.985 153.059C115.348 151.267 116.03 149.019 116.03 146.317C116.03 143.615 115.348 141.368 113.985 139.575C112.622 137.783 110.848 136.887 108.663 136.887H98.3482C98.0044 136.887 97.7036 136.742 97.4457 136.453C97.1879 136.163 97.0589 135.811 97.0589 135.398V132.42C97.0589 132.034 97.1879 131.696 97.4457 131.406C97.7036 131.117 98.0044 130.972 98.3482 130.972H108.773C110.394 130.972 111.978 131.331 113.525 132.048ZM133.247 143.256C133.616 143.256 133.923 143.401 134.168 143.691C134.414 143.98 134.537 144.332 134.537 144.745V160.214C134.537 160.6 134.414 160.938 134.168 161.228C133.923 161.517 133.616 161.662 133.247 161.662H130.448C130.104 161.662 129.803 161.517 129.545 161.228C129.287 160.938 129.159 160.6 129.159 160.214V144.745C129.159 144.332 129.287 143.98 129.545 143.691C129.803 143.401 130.104 143.256 130.448 143.256H133.247ZM133.247 130.972C133.616 130.972 133.923 131.117 134.168 131.406C134.414 131.696 134.537 132.034 134.537 132.42V140.072C134.537 140.485 134.414 140.837 134.168 141.126C133.923 141.416 133.616 141.561 133.247 141.561H130.448C130.104 141.561 129.803 141.416 129.545 141.126C129.287 140.837 129.159 140.485 129.159 140.072V132.42C129.159 132.034 129.287 131.696 129.545 131.406C129.803 131.117 130.104 130.972 130.448 130.972H133.247ZM166.342 130.972C166.685 130.972 166.986 131.117 167.244 131.406C167.502 131.696 167.631 132.034 167.631 132.42V160.132C167.631 160.518 167.502 160.856 167.244 161.145C166.986 161.435 166.685 161.579 166.342 161.579H163.1C162.658 161.579 162.302 161.386 162.032 161L144.019 133.288C143.871 133.068 143.785 132.82 143.761 132.544C143.736 132.268 143.779 132.006 143.89 131.758C144 131.51 144.16 131.317 144.368 131.179C144.577 131.041 144.804 130.972 145.05 130.972H148.292C148.488 130.972 148.685 131.02 148.881 131.117C149.077 131.213 149.225 131.358 149.323 131.551L162.253 151.28V132.42C162.253 132.034 162.376 131.696 162.621 131.406C162.867 131.117 163.174 130.972 163.542 130.972H166.342ZM147.85 151.032C148.193 151.032 148.494 151.17 148.752 151.446C149.01 151.722 149.139 152.066 149.139 152.48V160.132C149.139 160.518 149.01 160.856 148.752 161.145C148.494 161.435 148.193 161.579 147.85 161.579H145.05C144.706 161.579 144.405 161.435 144.147 161.145C143.89 160.856 143.761 160.518 143.761 160.132V152.48C143.761 152.066 143.89 151.722 144.147 151.446C144.405 151.17 144.706 151.032 145.05 151.032H147.85ZM201.094 159.635C201.265 160.077 201.222 160.525 200.965 160.98C200.707 161.435 200.357 161.662 199.915 161.662H175.381C175.16 161.662 174.952 161.6 174.755 161.476C174.559 161.352 174.411 161.193 174.313 161C174.043 160.559 174.006 160.104 174.203 159.635L175.345 156.616C175.443 156.34 175.602 156.12 175.823 155.954C176.044 155.789 176.278 155.706 176.523 155.706H193.689L187.648 139.493L182.712 152.728C182.614 153.004 182.46 153.218 182.251 153.369C182.043 153.521 181.803 153.597 181.533 153.597H178.439C177.972 153.597 177.604 153.376 177.334 152.935C177.236 152.742 177.174 152.521 177.15 152.273C177.125 152.025 177.15 151.791 177.223 151.57L184.701 131.882C184.799 131.606 184.953 131.386 185.162 131.22C185.37 131.055 185.61 130.972 185.88 130.972H189.416C189.686 130.972 189.926 131.055 190.135 131.22C190.343 131.386 190.497 131.606 190.595 131.882L201.094 159.635Z" fill="white"/>
</svg>
