<svg width="221" height="213" viewBox="0 0 221 213" fill="none" xmlns="http://www.w3.org/2000/svg">
<path d="M151.738 155.476H69.2458C68.1852 155.476 67.2071 154.832 66.6827 153.795C66.1583 152.762 66.1759 151.48 66.718 150.459L92.8151 101.627V69.4679H86.9228C85.2965 69.4679 83.9766 67.9793 83.9766 66.1599C83.9766 64.3405 85.2965 62.8519 86.9228 62.8519H95.7612C97.3875 62.8519 98.7074 64.3405 98.7074 66.1599V102.548C98.7074 103.15 98.566 103.739 98.289 104.255L74.4546 148.86H146.535L122.701 104.255C122.424 103.739 122.282 103.15 122.282 102.548V66.1599C122.282 64.3405 123.608 62.8519 125.229 62.8519H134.067C135.693 62.8519 137.013 64.3405 137.013 66.1599C137.013 67.9793 135.693 69.4679 134.067 69.4679H128.175V101.627L154.279 150.459C154.826 151.485 154.843 152.762 154.313 153.795C153.783 154.832 152.806 155.476 151.738 155.476Z" fill="black"/>
<path d="M130.927 142.244H90.0576C88.997 142.244 88.013 141.6 87.4944 140.563C86.97 139.53 86.9877 138.248 87.5298 137.227L104.594 105.298V99.2398C104.594 97.4204 105.914 95.9318 107.54 95.9318H113.432C115.059 95.9318 116.379 97.4204 116.379 99.2398V105.3L133.443 137.229C133.991 138.248 134.002 139.531 133.477 140.565C132.965 141.6 131.981 142.244 130.927 142.244Z" fill="#2EB88E"/>
<path d="M122.276 59.544C117.402 59.544 113.438 55.0914 113.438 49.62C113.438 44.1485 117.402 39.696 122.276 39.696C127.151 39.696 131.115 44.1485 131.115 49.62C131.115 55.0914 127.151 59.544 122.276 59.544Z" fill="#2B9978"/>
<path d="M110.492 33.0798C105.619 33.0798 101.653 28.6273 101.653 23.1558C101.653 17.6844 105.619 13.2318 110.492 13.2318C115.366 13.2318 119.33 17.6844 119.33 23.1558C119.33 28.6273 115.366 33.0798 110.492 33.0798Z" fill="#1C624D"/>
<path d="M134.061 19.8479C129.187 19.8479 125.223 15.3954 125.223 9.92396C125.223 4.45253 129.187 -3.05176e-05 134.061 -3.05176e-05C138.936 -3.05176e-05 142.9 4.45253 142.9 9.92396C142.9 15.3954 138.936 19.8479 134.061 19.8479Z" fill="#2EB88E"/>
<path d="M33.209 172.046C33.6601 172.046 34.0548 172.236 34.3931 172.616C34.7314 172.995 34.9005 173.439 34.9005 173.945V210.301C34.9005 210.808 34.7314 211.251 34.3931 211.631C34.0548 212.011 33.6601 212.2 33.209 212.2H29.5362C29.0529 212.2 28.6501 212.011 28.328 211.631C28.0058 211.251 27.8447 210.808 27.8447 210.301V185.774L18.9041 198.689C18.5497 199.159 18.0986 199.394 17.5509 199.394C17.2932 199.394 17.0354 199.331 16.7777 199.204C16.5199 199.078 16.3266 198.888 16.1978 198.635L0.346347 175.085C0.153037 174.831 0.0402729 174.515 0.00805458 174.135C-0.0241638 173.755 0.040273 173.411 0.201365 173.104C0.362456 172.796 0.571875 172.543 0.829622 172.344C1.08737 172.145 1.37733 172.046 1.69952 172.046H5.95234C6.50005 172.046 6.9511 172.299 7.30551 172.806L17.5509 187.999L27.5547 172.806C27.9091 172.299 28.3763 172.046 28.9562 172.046H33.209ZM5.37241 198.363C5.82346 198.363 6.21814 198.544 6.55643 198.906C6.89472 199.268 7.06387 199.72 7.06387 200.263V210.301C7.06387 210.808 6.89472 211.251 6.55643 211.631C6.21814 212.011 5.82346 212.2 5.37241 212.2H1.69952C1.24846 212.2 0.853786 212.011 0.515493 211.631C0.177201 211.251 0.00805458 210.808 0.00805458 210.301V200.263C0.00805458 199.72 0.177201 199.268 0.515493 198.906C0.853786 198.544 1.24846 198.363 1.69952 198.363H5.37241ZM72.567 204.495C73.0502 204.495 73.453 204.685 73.7751 205.065C74.0973 205.445 74.2584 205.906 74.2584 206.449V210.41C74.2584 210.916 74.0973 211.359 73.7751 211.739C73.453 212.119 73.0502 212.309 72.567 212.309H48.6932C48.2421 212.309 47.8474 212.119 47.5091 211.739C47.1709 211.359 47.0017 210.916 47.0017 210.41V206.449C47.0017 205.906 47.1709 205.445 47.5091 205.065C47.8474 204.685 48.2421 204.495 48.6932 204.495H72.567ZM48.6932 196.084C48.2421 196.084 47.8474 195.894 47.5091 195.515C47.1709 195.135 47.0017 194.692 47.0017 194.185V190.115C47.0017 189.609 47.1709 189.166 47.5091 188.786C47.8474 188.406 48.2421 188.216 48.6932 188.216H70.3922C70.8755 188.216 71.2863 188.406 71.6246 188.786C71.9629 189.166 72.132 189.609 72.132 190.115V194.185C72.132 194.692 71.9629 195.135 71.6246 195.515C71.2863 195.894 70.8755 196.084 70.3922 196.084H48.6932ZM72.567 172.046C73.0502 172.046 73.453 172.236 73.7751 172.616C74.0973 172.995 74.2584 173.439 74.2584 173.945V177.906C74.2584 178.449 74.0973 178.91 73.7751 179.29C73.453 179.67 73.0502 179.86 72.567 179.86H48.6932C48.2421 179.86 47.8474 179.67 47.5091 179.29C47.1709 178.91 47.0017 178.449 47.0017 177.906V173.945C47.0017 173.439 47.1709 172.995 47.5091 172.616C47.8474 172.236 48.2421 172.046 48.6932 172.046H72.567ZM105.981 173.457C107.946 174.289 109.718 175.627 111.297 177.472C114.68 181.307 116.371 186.199 116.371 192.15C116.371 198.101 114.68 203.012 111.297 206.883C109.718 208.728 107.946 210.066 105.981 210.898C103.951 211.839 101.873 212.309 99.7463 212.309H86.0697C85.6186 212.309 85.2239 212.119 84.8856 211.739C84.5473 211.359 84.3782 210.916 84.3782 210.41V206.503C84.3782 205.96 84.5473 205.499 84.8856 205.119C85.2239 204.739 85.6186 204.549 86.0697 204.549H99.6014C102.469 204.549 104.797 203.374 106.585 201.022C108.373 198.671 109.267 195.723 109.267 192.177C109.267 188.632 108.373 185.684 106.585 183.333C104.797 180.981 102.469 179.805 99.6014 179.805H86.0697C85.6186 179.805 85.2239 179.616 84.8856 179.236C84.5473 178.856 84.3782 178.395 84.3782 177.852V173.945C84.3782 173.439 84.5473 172.995 84.8856 172.616C85.2239 172.236 85.6186 172.046 86.0697 172.046H99.7463C101.873 172.046 103.951 172.516 105.981 173.457ZM131.855 188.162C132.338 188.162 132.741 188.352 133.063 188.732C133.385 189.112 133.547 189.573 133.547 190.115V210.41C133.547 210.916 133.385 211.359 133.063 211.739C132.741 212.119 132.338 212.309 131.855 212.309H128.182C127.731 212.309 127.337 212.119 126.998 211.739C126.66 211.359 126.491 210.916 126.491 210.41V190.115C126.491 189.573 126.66 189.112 126.998 188.732C127.337 188.352 127.731 188.162 128.182 188.162H131.855ZM131.855 172.046C132.338 172.046 132.741 172.236 133.063 172.616C133.385 172.995 133.547 173.439 133.547 173.945V183.984C133.547 184.526 133.385 184.988 133.063 185.367C132.741 185.747 132.338 185.937 131.855 185.937H128.182C127.731 185.937 127.337 185.747 126.998 185.367C126.66 184.988 126.491 184.526 126.491 183.984V173.945C126.491 173.439 126.66 172.995 126.998 172.616C127.337 172.236 127.731 172.046 128.182 172.046H131.855ZM175.273 172.046C175.724 172.046 176.118 172.236 176.457 172.616C176.795 172.995 176.964 173.439 176.964 173.945V210.301C176.964 210.808 176.795 211.251 176.457 211.631C176.118 212.011 175.724 212.2 175.273 212.2H171.02C170.44 212.2 169.973 211.947 169.618 211.441L145.986 175.085C145.793 174.795 145.68 174.47 145.648 174.108C145.616 173.746 145.672 173.402 145.817 173.077C145.962 172.751 146.171 172.498 146.445 172.317C146.719 172.136 147.017 172.046 147.339 172.046H151.592C151.85 172.046 152.108 172.109 152.365 172.236C152.623 172.362 152.816 172.552 152.945 172.806L169.908 198.689V173.945C169.908 173.439 170.069 172.995 170.391 172.616C170.714 172.236 171.116 172.046 171.6 172.046H175.273ZM151.012 198.363C151.463 198.363 151.858 198.544 152.196 198.906C152.534 199.268 152.704 199.72 152.704 200.263V210.301C152.704 210.808 152.534 211.251 152.196 211.631C151.858 212.011 151.463 212.2 151.012 212.2H147.339C146.888 212.2 146.494 212.011 146.155 211.631C145.817 211.251 145.648 210.808 145.648 210.301V200.263C145.648 199.72 145.817 199.268 146.155 198.906C146.494 198.544 146.888 198.363 147.339 198.363H151.012ZM220.865 209.65C221.09 210.229 221.034 210.817 220.696 211.414C220.357 212.011 219.898 212.309 219.318 212.309H187.132C186.842 212.309 186.568 212.228 186.311 212.065C186.053 211.902 185.859 211.694 185.731 211.441C185.376 210.862 185.328 210.265 185.586 209.65L187.084 205.689C187.213 205.327 187.422 205.038 187.712 204.821C188.002 204.604 188.308 204.495 188.63 204.495H211.151L203.225 183.224L196.749 200.588C196.62 200.95 196.419 201.23 196.145 201.429C195.871 201.628 195.557 201.728 195.203 201.728H191.143C190.531 201.728 190.048 201.438 189.693 200.86C189.565 200.606 189.484 200.317 189.452 199.991C189.42 199.666 189.452 199.358 189.548 199.069L199.359 173.24C199.488 172.878 199.689 172.588 199.963 172.371C200.237 172.154 200.551 172.046 200.905 172.046H205.545C205.899 172.046 206.213 172.154 206.487 172.371C206.761 172.588 206.962 172.878 207.091 173.24L220.865 209.65Z" fill="black"/>
</svg>
