<svg width="89" height="87" viewBox="0 0 89 87" fill="none" xmlns="http://www.w3.org/2000/svg">
<path d="M87.3186 34.513C86.6989 31.2954 85.7185 28.1579 84.3958 25.1601C80.4209 16.3278 73.5596 9.11047 64.9395 4.6942C56.3195 0.277939 46.4535 -1.07452 36.9629 0.859085C35.3529 1.1819 33.7634 1.60018 32.203 2.11171C29.9439 2.67463 27.7368 3.42893 25.6058 4.36644C20.1687 6.78028 15.2902 10.2938 11.2778 14.6857C7.26526 19.0776 4.20562 24.2528 2.29151 29.8853C0.377399 35.5178 -0.349712 41.4856 0.155965 47.4129C0.661643 53.3403 2.38915 59.0987 5.22971 64.3255C6.24333 66.1857 7.38747 67.9717 8.65356 69.6701C9.93818 71.3477 11.3331 72.9378 12.829 74.4301C18.7656 80.3374 26.2922 84.3905 34.4917 86.0957C42.6912 87.8008 51.2097 87.0843 59.0092 84.0335L61.765 82.8644L64.2702 81.6118C65.955 80.6653 67.5732 79.6051 69.1137 78.4385L71.3684 76.6848L72.3705 75.7662L73.2891 75.0146L74.9593 73.5115L75.5439 73.0104L76.0449 72.4259L77.5481 70.7557C79.4291 68.6246 81.0805 66.3014 82.4751 63.8245C84.6668 60.0026 86.2448 55.8602 87.1516 51.5487C88.3404 45.9379 88.3972 40.1461 87.3186 34.513ZM72.7046 74.0125L71.7025 74.9311L70.7004 75.8497L68.5292 77.6034C67.0127 78.7125 65.4223 79.7169 63.7692 80.6097L61.2639 81.8623L58.5916 82.9479L54.4997 84.2841H54.0822C48.4944 85.4499 42.729 85.4783 37.13 84.3676C33.9368 83.7178 30.8272 82.7093 27.8605 81.3613C24.7309 79.9436 21.7863 78.1488 19.0921 76.0167C16.2387 73.7305 13.6854 71.093 11.4928 68.1669C10.3568 66.6517 9.32449 65.0614 8.40303 63.4069C7.90198 62.5719 7.48444 61.7368 7.0669 60.8182C6.64935 59.8996 6.23181 59.0645 5.98129 58.1459C3.26931 51.0797 2.50506 43.4148 3.76841 35.9522C5.03176 28.4897 8.27633 21.5034 13.163 15.7236L13.8311 15.0555L14.2486 14.5545L14.7497 14.0534L15.7518 13.1348L17.756 11.3812C22.5055 7.53239 28.0351 4.76223 33.9615 3.26261C39.8879 1.76298 46.0695 1.56974 52.078 2.69627C56.3773 3.4722 60.5228 4.93863 64.3537 7.03871C66.8318 8.3989 69.1557 10.0228 71.2849 11.8822L72.9551 13.3854L73.5397 13.8864L74.0407 14.471L75.5439 16.1411C80.3012 21.5849 83.5541 28.177 84.9803 35.2646C86.082 40.8364 86.0536 46.5727 84.8968 52.1333C84.2424 55.2983 83.2339 58.3797 81.8905 61.3192C80.4228 64.4586 78.5715 67.4039 76.379 70.0876L74.6253 72.0918L72.7046 74.0125ZM35.2093 84.8686C31.2125 84.0423 27.3581 82.6356 23.7686 80.6932C21.9655 79.7042 20.2353 78.588 18.5911 77.3529C16.9733 76.1195 15.439 74.7805 13.9981 73.3445C8.33892 67.6181 4.45973 60.375 2.82955 52.4908C1.19936 44.6066 1.88799 36.4191 4.81217 28.9179C5.1462 27.9993 5.56374 27.1643 5.89778 26.3292L6.39883 25.2436C5.10323 28.1865 4.15054 31.2688 3.55954 34.4295C1.95789 42.3924 2.65297 50.6465 5.56374 58.2294C5.89778 59.148 6.31532 60.0666 6.73286 60.9017C7.15041 61.7368 7.56795 62.6554 8.069 63.4905C8.98786 65.1732 10.0202 66.7914 11.1588 68.3339C13.3682 71.2976 15.9504 73.964 18.8416 76.2673C21.5854 78.4374 24.5865 80.2605 27.777 81.6953C35.2834 85.0743 43.6081 86.2055 51.7439 84.9521C46.2813 86.0201 40.6609 85.9917 35.2093 84.8686ZM86.901 51.5487C86.0231 55.8562 84.4732 59.9987 82.3081 63.8245C80.9403 66.2979 79.317 68.621 77.4646 70.7557L75.9614 72.4259L75.4604 73.0104L74.8758 73.5115L73.2891 74.9311H73.4562L75.3769 72.9269L77.1305 70.8392C79.3038 68.0675 81.1269 65.0383 82.5586 61.8203C86.2129 53.5268 87.1483 44.2894 85.2309 35.4316C84.7339 33.0931 84.0354 30.8019 83.1431 28.5839C82.4134 26.714 81.5482 24.8998 80.5544 23.1559C79.1588 20.6796 77.5074 18.3565 75.6274 16.2246L74.1242 14.5545L73.6232 13.9699L73.0386 13.4689L71.3684 11.9657C69.2742 9.97962 66.9794 8.21648 64.5208 6.70468C62.7794 5.682 60.9651 4.78883 59.0927 4.03241C56.877 3.11251 54.5859 2.38606 52.245 1.86119C48.7641 1.09482 45.2023 0.758275 41.6394 0.859085C48.0793 0.293843 54.5632 1.20787 60.5958 3.53136L63.2681 4.61697L65.8569 5.9531C67.5117 6.87412 69.102 7.90643 70.6169 9.04292L72.7881 10.7966L73.7902 11.7152L74.7923 12.6338L76.713 14.5545L78.4667 16.5587C80.6286 19.2479 82.4516 22.1928 83.8947 25.3271C85.2381 28.2666 86.2466 31.348 86.901 34.513C88.0347 40.1069 88.0347 45.8714 86.901 51.4652V51.5487Z" fill="#2EB88E"/>
<path d="M53.2284 43.6227H35.1921C34.9602 43.6227 34.7464 43.4974 34.6317 43.2955C34.5171 43.0942 34.5209 42.8446 34.6395 42.6459L40.3454 33.1369V26.8747H39.0571C38.7015 26.8747 38.4129 26.5849 38.4129 26.2306C38.4129 25.8763 38.7015 25.5864 39.0571 25.5864H40.9895C41.3451 25.5864 41.6337 25.8763 41.6337 26.2306V33.3163C41.6337 33.4335 41.6028 33.5482 41.5422 33.6487L36.331 42.3344H52.0909L46.8797 33.6487C46.8191 33.5482 46.7882 33.4335 46.7882 33.3163V26.2306C46.7882 25.8763 47.0781 25.5864 47.4323 25.5864H49.3648C49.7204 25.5864 50.009 25.8763 50.009 26.2306C50.009 26.5849 49.7204 26.8747 49.3648 26.8747H48.0765V33.1369L53.784 42.6459C53.9035 42.8456 53.9074 43.0942 53.7914 43.2955C53.6755 43.4974 53.4619 43.6227 53.2284 43.6227Z" fill="white"/>
<path d="M48.6781 41.0461H39.7424C39.5105 41.0461 39.2954 40.9208 39.182 40.7189C39.0674 40.5176 39.0712 40.268 39.1898 40.0692L42.9207 33.8519V32.6721C42.9207 32.3178 43.2093 32.028 43.5648 32.028H44.8532C45.2087 32.028 45.4973 32.3178 45.4973 32.6721V33.8522L49.2282 40.0696C49.3481 40.268 49.3506 40.5179 49.2356 40.7192C49.1239 40.9208 48.9087 41.0461 48.6781 41.0461Z" fill="#2EB88E"/>
<path d="M46.787 24.9422C45.7212 24.9422 44.8545 24.0752 44.8545 23.0097C44.8545 21.9443 45.7212 21.0773 46.787 21.0773C47.8527 21.0773 48.7194 21.9443 48.7194 23.0097C48.7194 24.0752 47.8527 24.9422 46.787 24.9422Z" fill="#2B9978"/>
<path d="M44.2103 19.789C43.1449 19.789 42.2778 18.922 42.2778 17.8565C42.2778 16.7911 43.1449 15.9241 44.2103 15.9241C45.276 15.9241 46.1428 16.7911 46.1428 17.8565C46.1428 18.922 45.276 19.789 44.2103 19.789Z" fill="#1C624D"/>
<path d="M49.3634 17.2123C48.2976 17.2123 47.4309 16.3453 47.4309 15.2799C47.4309 14.2144 48.2976 13.3474 49.3634 13.3474C50.4291 13.3474 51.2958 14.2144 51.2958 15.2799C51.2958 16.3453 50.4291 17.2123 49.3634 17.2123Z" fill="#2EB88E"/>
<path d="M21.9604 49.5416C22.0905 49.5416 22.2043 49.5964 22.3018 49.7059C22.3994 49.8154 22.4481 49.9432 22.4481 50.0892V60.5715C22.4481 60.7176 22.3994 60.8453 22.3018 60.9549C22.2043 61.0644 22.0905 61.1191 21.9604 61.1191H20.9015C20.7621 61.1191 20.646 61.0644 20.5531 60.9549C20.4602 60.8453 20.4138 60.7176 20.4138 60.5715V53.4999L17.836 57.2235C17.7338 57.3591 17.6038 57.4268 17.4458 57.4268C17.3715 57.4268 17.2972 57.4086 17.2229 57.3721C17.1486 57.3356 17.0928 57.2808 17.0557 57.2078L12.4854 50.4178C12.4296 50.3448 12.3971 50.2535 12.3878 50.144C12.3785 50.0345 12.3971 49.9354 12.4436 49.8467C12.49 49.7581 12.5504 49.685 12.6247 49.6277C12.699 49.5703 12.7826 49.5416 12.8755 49.5416H14.1017C14.2596 49.5416 14.3897 49.6146 14.4918 49.7607L17.4458 54.1413L20.3302 49.7607C20.4323 49.6146 20.567 49.5416 20.7342 49.5416H21.9604ZM13.9345 57.1296C14.0645 57.1296 14.1783 57.1817 14.2759 57.286C14.3734 57.3903 14.4222 57.5207 14.4222 57.6772V60.5715C14.4222 60.7176 14.3734 60.8453 14.2759 60.9549C14.1783 61.0644 14.0645 61.1191 13.9345 61.1191H12.8755C12.7455 61.1191 12.6317 61.0644 12.5341 60.9549C12.4366 60.8453 12.3878 60.7176 12.3878 60.5715V57.6772C12.3878 57.5207 12.4366 57.3903 12.5341 57.286C12.6317 57.1817 12.7455 57.1296 12.8755 57.1296H13.9345ZM33.3082 58.8975C33.4476 58.8975 33.5637 58.9523 33.6566 59.0618C33.7495 59.1713 33.7959 59.3043 33.7959 59.4607V60.6028C33.7959 60.7489 33.7495 60.8766 33.6566 60.9861C33.5637 61.0957 33.4476 61.1504 33.3082 61.1504H26.4249C26.2948 61.1504 26.181 61.0957 26.0835 60.9861C25.9859 60.8766 25.9372 60.7489 25.9372 60.6028V59.4607C25.9372 59.3043 25.9859 59.1713 26.0835 59.0618C26.181 58.9523 26.2948 58.8975 26.4249 58.8975H33.3082ZM26.4249 56.4725C26.2948 56.4725 26.181 56.4177 26.0835 56.3082C25.9859 56.1987 25.9372 56.0709 25.9372 55.9249V54.7515C25.9372 54.6055 25.9859 54.4777 26.0835 54.3682C26.181 54.2587 26.2948 54.2039 26.4249 54.2039H32.6812C32.8205 54.2039 32.939 54.2587 33.0365 54.3682C33.1341 54.4777 33.1828 54.6055 33.1828 54.7515V55.9249C33.1828 56.0709 33.1341 56.1987 33.0365 56.3082C32.939 56.4177 32.8205 56.4725 32.6812 56.4725H26.4249ZM33.3082 49.5416C33.4476 49.5416 33.5637 49.5964 33.6566 49.7059C33.7495 49.8154 33.7959 49.9432 33.7959 50.0892V51.2313C33.7959 51.3878 33.7495 51.5208 33.6566 51.6303C33.5637 51.7398 33.4476 51.7945 33.3082 51.7945H26.4249C26.2948 51.7945 26.181 51.7398 26.0835 51.6303C25.9859 51.5208 25.9372 51.3878 25.9372 51.2313V50.0892C25.9372 49.9432 25.9859 49.8154 26.0835 49.7059C26.181 49.5964 26.2948 49.5416 26.4249 49.5416H33.3082ZM42.9422 49.9484C43.5088 50.1883 44.0197 50.5742 44.4749 51.1062C45.4503 52.2118 45.938 53.6224 45.938 55.3382C45.938 57.054 45.4503 58.4699 44.4749 59.5859C44.0197 60.1178 43.5088 60.5038 42.9422 60.7436C42.3569 61.0148 41.7578 61.1504 41.1447 61.1504H37.2014C37.0713 61.1504 36.9575 61.0957 36.86 60.9861C36.7625 60.8766 36.7137 60.7489 36.7137 60.6028V59.4764C36.7137 59.3199 36.7625 59.1869 36.86 59.0774C36.9575 58.9679 37.0713 58.9131 37.2014 58.9131H41.1029C41.9296 58.9131 42.6008 58.5742 43.1163 57.8962C43.6319 57.2182 43.8897 56.3682 43.8897 55.346C43.8897 54.3239 43.6319 53.4738 43.1163 52.7958C42.6008 52.1179 41.9296 51.7789 41.1029 51.7789H37.2014C37.0713 51.7789 36.9575 51.7241 36.86 51.6146C36.7625 51.5051 36.7137 51.3721 36.7137 51.2157V50.0892C36.7137 49.9432 36.7625 49.8154 36.86 49.7059C36.9575 49.5964 37.0713 49.5416 37.2014 49.5416H41.1447C41.7578 49.5416 42.3569 49.6772 42.9422 49.9484ZM50.4024 54.1883C50.5417 54.1883 50.6578 54.243 50.7507 54.3525C50.8436 54.4621 50.8901 54.5951 50.8901 54.7515V60.6028C50.8901 60.7489 50.8436 60.8766 50.7507 60.9861C50.6578 61.0957 50.5417 61.1504 50.4024 61.1504H49.3434C49.2134 61.1504 49.0996 61.0957 49.002 60.9861C48.9045 60.8766 48.8557 60.7489 48.8557 60.6028V54.7515C48.8557 54.5951 48.9045 54.4621 49.002 54.3525C49.0996 54.243 49.2134 54.1883 49.3434 54.1883H50.4024ZM50.4024 49.5416C50.5417 49.5416 50.6578 49.5964 50.7507 49.7059C50.8436 49.8154 50.8901 49.9432 50.8901 50.0892V52.9836C50.8901 53.14 50.8436 53.273 50.7507 53.3825C50.6578 53.4921 50.5417 53.5468 50.4024 53.5468H49.3434C49.2134 53.5468 49.0996 53.4921 49.002 53.3825C48.9045 53.273 48.8557 53.14 48.8557 52.9836V50.0892C48.8557 49.9432 48.9045 49.8154 49.002 49.7059C49.0996 49.5964 49.2134 49.5416 49.3434 49.5416H50.4024ZM62.9206 49.5416C63.0507 49.5416 63.1645 49.5964 63.262 49.7059C63.3595 49.8154 63.4083 49.9432 63.4083 50.0892V60.5715C63.4083 60.7176 63.3595 60.8453 63.262 60.9549C63.1645 61.0644 63.0507 61.1191 62.9206 61.1191H61.6944C61.5272 61.1191 61.3925 61.0461 61.2904 60.9001L54.4767 50.4178C54.4209 50.3343 54.3884 50.2404 54.3791 50.1361C54.3698 50.0318 54.3861 49.9328 54.4279 49.8389C54.4697 49.745 54.5301 49.672 54.609 49.6199C54.688 49.5677 54.7739 49.5416 54.8668 49.5416H56.093C56.1673 49.5416 56.2416 49.5599 56.3159 49.5964C56.3903 49.6329 56.446 49.6876 56.4832 49.7607L61.374 57.2235V50.0892C61.374 49.9432 61.4204 49.8154 61.5133 49.7059C61.6062 49.5964 61.7223 49.5416 61.8616 49.5416H62.9206ZM55.9258 57.1296C56.0558 57.1296 56.1696 57.1817 56.2672 57.286C56.3647 57.3903 56.4135 57.5207 56.4135 57.6772V60.5715C56.4135 60.7176 56.3647 60.8453 56.2672 60.9549C56.1696 61.0644 56.0558 61.1191 55.9258 61.1191H54.8668C54.7368 61.1191 54.623 61.0644 54.5254 60.9549C54.4279 60.8453 54.3791 60.7176 54.3791 60.5715V57.6772C54.3791 57.5207 54.4279 57.3903 54.5254 57.286C54.623 57.1817 54.7368 57.1296 54.8668 57.1296H55.9258ZM76.0659 60.3838C76.1309 60.5507 76.1147 60.7202 76.0171 60.8923C75.9196 61.0644 75.7872 61.1504 75.62 61.1504H66.34C66.2564 61.1504 66.1774 61.127 66.1031 61.08C66.0288 61.0331 65.9731 60.9731 65.9359 60.9001C65.8337 60.7332 65.8198 60.5611 65.8941 60.3838L66.3261 59.2417C66.3632 59.1374 66.4236 59.054 66.5072 58.9914C66.5908 58.9288 66.6791 58.8975 66.772 58.8975H73.2652L70.98 52.7646L69.1129 57.771C69.0757 57.8753 69.0177 57.9562 68.9387 58.0135C68.8597 58.0709 68.7692 58.0996 68.667 58.0996H67.4965C67.32 58.0996 67.1807 58.0162 67.0785 57.8493C67.0414 57.7763 67.0181 57.6928 67.0088 57.5989C66.9995 57.5051 67.0088 57.4164 67.0367 57.333L69.8653 49.8858C69.9025 49.7815 69.9605 49.6981 70.0395 49.6355C70.1184 49.5729 70.209 49.5416 70.3112 49.5416H71.6488C71.751 49.5416 71.8416 49.5729 71.9206 49.6355C71.9995 49.6981 72.0576 49.7815 72.0947 49.8858L76.0659 60.3838Z" fill="white"/>
</svg>
